<?xml version="1.0" encoding="utf-8"?>
<!-- Generator: Adobe Illustrator 19.0.0, SVG Export Plug-In . SVG Version: 6.00 Build 0)  -->
<svg version="1.1" id="Layer_1" xmlns="http://www.w3.org/2000/svg" xmlns:xlink="http://www.w3.org/1999/xlink" x="0px" y="0px"
	 viewBox="0 0 241 211" style="enable-background:new 0 0 241 211;" xml:space="preserve">
<g id="XMLID_106_">
	<path id="XMLID_107_" d="M67.3,58.7c-0.9,1.8-2.1,3.3-3.7,4.5c-3,2.3-7,3.4-12,3.4h-15v-49H50c7.2,0,11.8,2.2,14,6.6
		c0.8,1.6,1.2,3.2,1.2,4.8S65,32.1,64.7,33c-0.3,0.9-0.6,1.8-1.2,2.7c-1.1,1.9-2.5,3.2-4.2,4c2.9,0.8,5.2,2.3,6.8,4.6
		c1.7,2.3,2.5,5.2,2.5,8.7C68.7,55,68.3,56.9,67.3,58.7z M50,22.5h-8.2v15.3h9.6c2.6,0,4.7-0.6,6.3-1.9c1.6-1.3,2.4-3.3,2.4-5.9
		C60.1,25,56.7,22.5,50,22.5z M62.8,48.2c-0.6-1.1-1.3-2.1-2.2-2.8c-1.9-1.7-4.2-2.6-6.7-2.6H41.8v19h11.4c3.1,0,5.6-0.9,7.5-2.7
		c2-1.8,3-4.2,3-7.1C63.7,50.6,63.4,49.3,62.8,48.2z"/>
	<path id="XMLID_111_" d="M100.7,66.7v-5.4c-0.3,0.4-0.6,0.7-0.9,1.1c-3,3.4-6.7,5-11.1,5c-4.4,0-8.1-1.7-11.1-5
		c-2.9-3.3-4.4-7.1-4.4-11.5c0-4.4,1.5-8.3,4.4-11.5c3-3.4,6.7-5,11.1-5c4.4,0,8.1,1.7,11.1,5c0.3,0.4,0.6,0.7,0.9,1.1V35h5v31.7
		H100.7z M97.5,42.8c-2.1-2.3-4.8-3.5-8-3.5c-3.2,0-5.8,1.2-8,3.5c-2.1,2.3-3.2,5-3.2,8.1s1.1,5.8,3.2,8.1c2.1,2.3,4.8,3.5,8,3.5
		c3.2,0,5.8-1.2,8-3.5c2.1-2.3,3.2-5,3.2-8.1S99.7,45.1,97.5,42.8z"/>
	<path id="XMLID_114_" d="M122.6,26.3c0,0.9-0.3,1.6-0.9,2.3c-0.6,0.6-1.4,0.9-2.3,0.9s-1.6-0.3-2.3-0.9s-0.9-1.4-0.9-2.3
		c0-0.9,0.3-1.6,0.9-2.3c0.6-0.6,1.4-0.9,2.3-0.9s1.6,0.3,2.3,0.9C122.3,24.7,122.6,25.4,122.6,26.3z M116.9,66.7V35h5v31.7H116.9z"
		/>
	<path id="XMLID_117_" d="M133.1,66.7v-54h5v54H133.1z"/>
	<path id="XMLID_119_" d="M179.9,52.8H152c0.5,2.7,1.8,5,4,6.7c2.2,1.8,4.6,2.7,7.3,2.7c1.8,0,3.6-0.4,5.2-1.3c1.7-0.8,3-2,4.1-3.5
		h5.8c-1.3,3-3.4,5.4-6.1,7.2c-2.7,1.8-5.5,2.6-8.3,2.6s-5.2-0.4-7.2-1.3c-2-0.9-3.7-2-5.3-3.5c-3.2-3.2-4.9-7.1-4.9-11.7
		c0-4.6,1.6-8.5,4.9-11.7s7.1-4.9,11.7-4.9c4.4,0,8.3,1.6,11.6,4.7c3.3,3.2,5,6.9,5,11.3V52.8z M170.5,41.8
		c-2.1-1.7-4.5-2.6-7.2-2.6c-4.1,0-7.3,1.9-9.7,5.6c-0.7,1.1-1.2,2.4-1.5,3.7h22.5C174,45.8,172.6,43.5,170.5,41.8z"/>
	<path id="XMLID_122_" d="M197.6,63.4c4.6,0,6.9-1.7,6.9-5.2c0-2-1.7-3.6-5-4.6c-1.4-0.5-2.9-0.9-4.5-1.3c-1.6-0.4-3.1-0.9-4.5-1.6
		c-1.6-0.8-2.9-1.7-3.7-2.9c-0.8-1.2-1.2-2.5-1.2-4.1c0-3.1,1.1-5.5,3.3-7.1c2.2-1.6,4.9-2.4,7.9-2.4c3.1,0,5.6,0.6,7.7,1.9
		c2,1.2,3.4,3.5,4.1,6.7h-5.4c-0.5-1.8-1.4-2.9-2.5-3.5c-1.1-0.6-2.4-0.9-4-0.9c-1.6,0-2.9,0.3-4,1c-1.2,0.7-1.7,1.7-1.7,3.2
		c0,1.4,0.5,2.5,1.4,3.1c0.9,0.7,2.1,1.2,3.5,1.6c1.4,0.4,2.9,0.8,4.5,1.2c1.6,0.4,3.1,0.9,4.5,1.6c3.3,1.6,4.9,4,4.9,7.5
		c0,3.4-1.2,5.9-3.7,7.6c-1.2,0.8-2.6,1.4-4.1,1.8c-1.5,0.4-3.1,0.6-4.8,0.6c-7.3,0-11.6-3.3-12.7-9.8h5.3c0.5,2.1,1.4,3.5,2.7,4.3
		C194,63,195.6,63.4,197.6,63.4z"/>
	<path id="XMLID_124_" d="M122.2,112.7v11.8h-4.2v-11.8h-11.7v-4.1h11.7V96.8h4.2v11.8H134v4.1H122.2z"/>
	<path id="XMLID_126_" d="M52.5,182v4.7H15.6l29-44.3H17.1v-4.7h36.7l-29,44.3H52.5z"/>
	<path id="XMLID_128_" d="M67,146.3c0,0.9-0.3,1.6-0.9,2.3c-0.6,0.6-1.4,0.9-2.3,0.9s-1.6-0.3-2.3-0.9c-0.6-0.6-0.9-1.4-0.9-2.3
		c0-0.9,0.3-1.6,0.9-2.3s1.4-0.9,2.3-0.9s1.6,0.3,2.3,0.9C66.7,144.7,67,145.4,67,146.3z M61.3,186.7V155h5v31.7H61.3z"/>
	<path id="XMLID_131_" d="M99.3,166.9c0-2.1-0.5-3.8-1.4-5.3c-0.9-1.5-2.5-2.2-4.6-2.2s-3.9,0.4-5.3,1.2c-1.3,0.8-2.4,1.9-3.3,3.2
		c-1.5,2.4-2.3,5.6-2.3,9.6v13.2h-5V155h5v5.4c1.1-1.8,2.4-3.2,4-4.3c1.7-1.2,3.7-1.8,6-1.8c2.3,0,4.1,0.3,5.5,1
		c1.4,0.6,2.6,1.5,3.5,2.7c1.9,2.3,2.9,5.2,2.9,8.9v19.8h-5V166.9z"/>
	<path id="XMLID_133_" d="M139.3,186.7v-5.4c-0.3,0.4-0.6,0.7-0.9,1.1c-3,3.4-6.7,5-11.1,5c-4.4,0-8.1-1.7-11.1-5
		c-2.9-3.3-4.4-7.1-4.4-11.5s1.5-8.3,4.4-11.5c3-3.4,6.7-5,11.1-5c4.4,0,8.1,1.7,11.1,5c0.3,0.4,0.6,0.7,0.9,1.1v-27.7h5v54H139.3z
		 M136.1,162.8c-2.1-2.3-4.8-3.5-8-3.5s-5.8,1.2-8,3.5c-2.1,2.3-3.2,5-3.2,8.1s1.1,5.8,3.2,8.1c2.1,2.3,4.8,3.5,8,3.5s5.8-1.2,8-3.5
		c2.1-2.3,3.2-5,3.2-8.1S138.2,165.1,136.1,162.8z"/>
	<path id="XMLID_136_" d="M155.1,186.7v-54h5v54H155.1z"/>
	<path id="XMLID_138_" d="M201.9,172.8h-27.9c0.5,2.7,1.8,5,4,6.7c2.2,1.8,4.6,2.7,7.3,2.7c1.8,0,3.6-0.4,5.2-1.3
		c1.7-0.8,3-2,4.1-3.5h5.8c-1.3,3-3.4,5.4-6.1,7.2c-2.7,1.8-5.5,2.6-8.3,2.6c-2.8,0-5.2-0.4-7.2-1.3s-3.7-2-5.3-3.5
		c-3.2-3.2-4.9-7.1-4.9-11.7c0-4.6,1.6-8.5,4.9-11.7s7.1-4.9,11.7-4.9c4.4,0,8.3,1.6,11.6,4.7c3.3,3.2,5,6.9,5,11.3V172.8z
		 M192.5,161.8c-2.1-1.7-4.5-2.6-7.2-2.6c-4.1,0-7.3,1.9-9.7,5.6c-0.7,1.1-1.2,2.4-1.5,3.7h22.5C196,165.8,194.7,163.5,192.5,161.8z
		"/>
	<path id="XMLID_141_" d="M222.8,160c-1.3,0-2.4,0.4-3.4,1.1c-0.9,0.7-1.7,1.7-2.3,2.7c-1.2,2.1-1.8,4.4-1.8,7v15.8h-5V155h5v6.6
		l0.2-1.3c1.7-3.9,4.3-5.9,7.8-5.9c1.1,0,2.2,0.2,3.2,0.6v6.6C225.3,160.5,224.1,160,222.8,160z"/>
</g>
</svg>
