<?xml version="1.0" encoding="UTF-8" standalone="no"?>
<svg
   xmlns:dc="http://purl.org/dc/elements/1.1/"
   xmlns:cc="http://creativecommons.org/ns#"
   xmlns:rdf="http://www.w3.org/1999/02/22-rdf-syntax-ns#"
   xmlns:svg="http://www.w3.org/2000/svg"
   xmlns="http://www.w3.org/2000/svg"
   xmlns:xlink="http://www.w3.org/1999/xlink"
   xmlns:sodipodi="http://sodipodi.sourceforge.net/DTD/sodipodi-0.dtd"
   xmlns:inkscape="http://www.inkscape.org/namespaces/inkscape"
   viewBox="0 0 977 1073"
   height="1073pt"
   width="977pt"
   version="1.1"
   id="svg5034"
   sodipodi:docname="BZMasters.svg"
   inkscape:version="0.92.1 r15371">
  <metadata
     id="metadata5038">
    <rdf:RDF>
      <cc:Work
         rdf:about="">
        <dc:format>image/svg+xml</dc:format>
        <dc:type
           rdf:resource="http://purl.org/dc/dcmitype/StillImage" />
        <dc:title></dc:title>
      </cc:Work>
    </rdf:RDF>
  </metadata>
  <sodipodi:namedview
     pagecolor="#ffffff"
     bordercolor="#666666"
     borderopacity="1"
     objecttolerance="10"
     gridtolerance="10"
     guidetolerance="10"
     inkscape:pageopacity="0"
     inkscape:pageshadow="2"
     inkscape:window-width="1920"
     inkscape:window-height="1021"
     id="namedview5036"
     showgrid="false"
     inkscape:zoom="0.16495806"
     inkscape:cx="2377.9866"
     inkscape:cy="-324.78385"
     inkscape:window-x="-8"
     inkscape:window-y="-8"
     inkscape:window-maximized="1"
     inkscape:current-layer="svg5034" />
  <defs
     id="defs4920">
    <path
       d="M0.00 0.00 L977.00 0.00 L977.00 1073.00 L0.00 1073.00 L0.00 0.00"
       id="p1" />
    <path
       d="M735.49 29.83 C737.84 29.47 740.24 29.72 742.62 29.77 C743.38 34.48 743.17 39.26 743.16 44.00 C743.20 96.02 743.11 148.04 743.22 200.06 C743.89 252.30 743.25 304.56 743.70 356.81 C762.31 349.78 782.22 347.99 801.80 345.57 C812.60 344.44 823.32 340.90 834.25 342.67 C839.93 343.91 843.62 348.79 848.46 351.60 C866.45 363.96 889.24 365.86 907.65 377.38 C909.31 389.85 909.12 402.47 909.17 415.02 C908.55 428.68 908.93 442.35 908.82 456.01 C908.68 462.07 909.27 468.11 909.96 474.12 C910.96 482.57 916.41 489.40 920.38 496.64 C934.47 521.18 947.77 546.95 952.45 575.15 C956.47 598.63 953.27 623.01 944.39 645.05 C952.02 654.60 954.82 666.82 957.21 678.54 C959.70 690.90 956.80 704.74 948.14 714.15 C942.40 720.60 934.61 724.62 926.82 728.04 C917.12 732.52 907.47 737.14 897.97 742.05 C890.87 745.51 887.43 753.00 883.35 759.31 C876.96 769.58 871.76 780.69 863.84 789.93 C856.79 798.16 846.84 803.75 836.18 805.61 C832.73 806.14 829.38 807.41 826.75 809.76 C814.28 820.05 805.74 834.07 794.33 845.40 C792.59 847.02 790.58 848.38 788.34 849.19 C777.07 853.00 765.55 857.28 756.47 865.24 C749.10 871.58 742.64 878.89 736.22 886.16 C727.93 896.31 720.60 907.20 713.29 918.06 C710.62 922.61 707.03 927.44 707.90 933.03 C709.01 941.67 714.33 948.95 719.21 955.88 C727.29 966.42 733.39 978.74 735.42 991.95 C738.12 1008.33 732.85 1026.07 720.50 1037.40 C709.71 1036.12 698.82 1036.85 687.98 1036.38 C670.33 1036.01 652.61 1035.40 635.19 1032.30 C620.58 1029.62 605.85 1023.62 595.95 1012.16 C590.28 1005.92 587.62 997.78 583.29 990.69 C571.30 970.25 555.98 952.09 541.26 933.61 C526.10 914.62 511.69 894.44 503.70 871.27 C496.78 852.27 487.33 832.38 469.46 821.42 C465.87 818.79 460.41 818.07 458.54 813.59 C457.05 809.30 456.18 804.82 454.46 800.62 C449.81 788.38 441.16 777.96 430.71 770.21 C412.44 756.17 390.58 748.08 371.34 735.59 C352.89 744.57 334.88 755.14 314.62 759.56 C307.03 775.07 299.95 791.28 287.99 804.04 C284.66 807.41 281.36 810.95 277.27 813.41 C271.27 815.95 263.35 816.61 258.29 811.77 C244.15 797.30 223.78 792.81 206.51 783.49 C198.59 779.00 191.81 772.32 187.82 764.09 C183.56 755.93 182.23 746.72 179.82 737.94 C174.75 718.38 168.10 698.63 155.56 682.49 C146.02 669.90 132.59 660.79 118.18 654.63 C106.82 649.88 100.58 638.61 94.56 628.57 C87.49 616.82 76.91 606.07 62.99 603.31 C56.14 602.19 49.09 600.02 44.19 594.81 C38.05 588.49 35.07 579.72 34.28 571.08 C32.28 554.97 31.44 538.09 36.73 522.50 C117.65 522.28 198.57 522.37 279.49 522.36 C279.53 469.89 279.52 417.43 279.50 364.97 C280.13 339.32 279.70 313.67 279.82 288.02 C279.85 242.23 279.76 196.45 279.87 150.66 C313.87 148.87 347.95 148.73 382.00 148.69 C404.04 149.04 426.09 148.84 448.13 149.54 C461.80 149.94 475.52 149.16 489.16 150.28 C490.10 162.15 490.59 174.03 490.65 185.94 C492.49 228.29 491.20 270.69 491.79 313.07 C491.94 316.28 491.42 319.62 492.23 322.76 C503.02 330.03 516.44 330.95 529.03 332.00 C544.49 333.17 560.16 334.95 574.82 340.25 C583.15 343.50 589.67 350.25 598.32 352.81 C606.31 355.09 614.72 354.56 622.90 353.94 C633.28 353.75 643.64 352.84 654.03 353.00 C666.82 353.37 679.55 355.11 691.99 358.06 C703.53 360.59 715.71 364.86 727.41 360.68 C727.02 348.11 727.66 335.52 726.81 322.96 C726.49 284.31 726.80 245.65 726.59 206.99 C726.61 189.27 726.97 171.53 726.19 153.82 C726.77 119.88 726.31 85.93 726.55 51.99 C726.65 46.43 728.27 41.03 728.34 35.46 L728.38 34.05 C730.59 32.42 732.75 30.48 735.49 29.83"
       id="p2" />
    <path
       d="M675.25 53.08 C688.44 48.92 696.48 35.48 710.13 32.28 C716.39 30.55 722.65 33.05 728.34 35.46 C728.27 41.03 726.65 46.43 726.55 51.99 C726.31 85.93 726.77 119.88 726.19 153.82 C725.90 150.60 725.83 147.38 725.67 144.15 C721.34 144.36 716.93 143.75 712.67 144.67 C708.79 146.61 705.98 150.13 702.23 152.29 C687.49 162.18 669.23 163.63 652.00 164.25 C631.58 164.34 610.12 164.45 591.58 174.23 C598.73 155.23 606.14 136.20 610.30 116.27 C613.17 102.24 614.72 87.71 612.67 73.46 C625.97 65.68 639.72 58.06 654.79 54.36 C661.48 52.56 668.44 53.45 675.25 53.08"
       id="p3" />
    <path
       d="M304.98 163.75 C353.24 163.27 401.51 163.01 449.77 163.37 C458.71 163.55 467.66 163.41 476.59 163.93 C477.42 178.95 477.31 193.98 477.45 209.02 C477.64 240.34 477.44 271.66 477.86 302.98 C478.81 312.07 477.57 321.33 479.45 330.33 C486.77 335.61 494.72 340.55 503.75 342.11 C517.22 344.56 530.87 345.70 544.45 347.38 C552.26 348.13 560.11 349.52 567.35 352.67 C577.23 356.90 586.65 362.12 596.33 366.77 C599.94 368.56 604.11 367.59 607.98 367.76 C627.68 367.71 647.42 366.73 667.11 367.89 C686.09 370.13 704.71 374.78 723.48 378.24 C723.88 393.48 723.52 408.75 723.64 424.00 C723.73 496.26 723.73 568.52 723.59 640.78 C710.77 644.93 697.50 650.24 688.57 660.80 C676.01 675.30 675.91 699.55 689.68 713.31 C701.13 724.90 718.21 728.42 733.96 728.38 C749.10 728.30 765.45 724.55 776.25 713.22 C785.18 704.00 788.55 690.54 787.44 678.00 C786.28 670.98 782.06 664.79 777.03 659.92 C768.41 651.57 757.87 645.44 746.72 641.11 C746.89 613.73 746.47 586.32 747.21 558.95 C747.32 498.17 747.55 437.40 747.58 376.62 C757.86 371.27 768.15 365.66 779.41 362.64 C797.81 357.65 817.00 356.82 835.95 356.13 C839.99 361.12 843.51 366.54 847.77 371.33 C851.86 373.25 856.56 373.23 860.94 374.18 C873.03 376.43 884.44 381.19 895.64 386.14 C896.62 410.43 896.12 434.78 896.87 459.09 C898.04 470.92 896.22 483.27 900.55 494.63 C903.98 502.34 911.44 507.02 916.68 513.37 C923.05 520.22 925.54 529.49 927.79 538.33 C931.23 552.53 934.13 566.96 939.47 580.62 C941.24 585.34 944.76 589.77 944.16 595.08 C942.02 609.76 936.49 623.66 933.07 638.05 C930.29 648.90 938.05 658.24 940.62 668.29 C934.36 671.81 927.44 673.84 920.98 676.90 C896.12 688.36 875.53 707.98 861.00 731.00 C856.37 738.21 852.81 746.03 848.34 753.33 C837.35 753.62 825.45 755.27 817.06 763.07 C809.01 770.68 802.06 779.37 794.03 787.03 C786.66 794.03 780.23 802.78 770.39 806.45 C763.46 809.05 756.24 810.73 749.31 813.30 C745.80 814.44 743.46 817.40 741.16 820.10 C732.47 830.61 724.41 841.62 716.77 852.91 C707.45 866.30 699.52 880.94 695.65 896.88 C692.96 907.72 693.34 918.97 693.58 930.04 C693.96 939.47 695.85 949.45 702.24 956.78 C709.23 964.51 714.61 973.55 719.12 982.91 C720.43 985.59 721.29 988.46 721.96 991.37 C718.78 992.57 715.50 993.67 712.07 993.69 C704.54 993.88 696.80 994.13 689.53 991.82 C682.16 989.38 675.88 984.67 669.27 980.75 C664.67 978.05 659.17 978.15 654.02 978.13 C644.85 978.22 635.62 978.23 626.55 976.80 C617.02 975.36 609.46 968.59 603.64 961.34 C598.00 953.18 595.21 943.52 591.59 934.40 C588.34 925.75 585.67 916.54 579.49 909.44 C574.34 903.57 568.44 898.24 561.62 894.39 C557.05 891.79 551.49 891.08 547.46 887.53 C542.92 883.51 540.21 877.94 537.35 872.71 C528.98 856.44 521.50 839.75 513.63 823.24 C508.50 812.68 503.86 801.70 496.59 792.39 C490.35 784.26 481.32 779.04 474.08 771.95 C470.32 768.34 468.26 763.48 466.41 758.71 C459.14 740.58 445.22 725.56 428.50 715.66 C413.21 706.64 397.42 698.48 381.62 690.40 C377.09 688.31 372.79 685.63 367.98 684.25 C364.19 684.39 361.33 687.46 358.09 689.12 C342.75 697.62 325.84 702.90 310.58 711.56 C305.47 714.36 302.34 719.44 299.03 724.03 C291.27 735.36 285.43 747.96 276.70 758.63 C274.83 760.98 272.49 762.90 270.13 764.75 C263.26 761.94 257.99 756.34 250.98 753.79 C239.93 749.42 228.32 745.65 218.99 738.00 C204.76 726.89 196.85 710.03 190.35 693.64 C182.71 674.80 178.38 654.30 166.59 637.39 C158.75 625.82 146.97 617.71 134.85 611.17 C128.34 607.52 121.06 604.73 116.01 599.02 C111.09 593.44 107.52 586.86 103.11 580.90 C95.73 570.67 86.61 561.05 74.72 556.20 C68.48 553.31 61.17 552.67 55.66 548.30 C51.48 544.26 49.54 538.36 49.46 532.64 C130.82 532.50 212.18 532.67 293.55 532.57 C293.51 429.03 293.25 325.49 293.51 221.96 C293.82 202.79 293.19 183.59 294.39 164.45 C297.92 164.28 301.44 163.88 304.98 163.75"
       id="p4" />
    <path
       d="M48.07 558.21 C53.24 560.25 57.75 563.53 62.51 566.34 C64.68 567.78 67.17 569.06 68.60 571.33 C70.66 577.82 71.06 585.09 68.43 591.49 C62.04 590.31 55.11 588.39 51.03 582.91 C45.76 575.84 46.12 566.39 48.07 558.21"
       id="p5" />
    <path
       d="M81.37 575.44 C88.27 582.08 88.57 592.58 88.29 601.52 C82.87 594.13 79.78 584.61 81.37 575.44"
       id="p6" />
    <path
       d="M102.33 604.63 C109.90 611.52 117.60 618.65 127.13 622.75 C129.27 623.79 132.13 624.61 132.74 627.26 C134.57 633.41 136.18 639.62 137.88 645.80 C126.59 646.15 115.41 639.88 109.71 630.15 C105.44 622.34 102.79 613.53 102.33 604.63"
       id="p7" />
    <path
       d="M147.77 637.14 C161.00 651.99 170.90 669.95 175.80 689.27 C168.54 678.59 158.52 669.93 152.65 658.31 C149.16 651.85 147.39 644.49 147.77 637.14"
       id="p8" />
    <path
       d="M707.38 667.29 C711.92 664.56 716.80 662.14 722.06 661.22 C723.95 660.90 725.35 662.61 725.88 664.24 C727.55 668.61 726.00 673.28 725.18 677.66 C716.42 680.59 707.72 683.70 698.89 686.40 C698.35 679.19 701.00 671.23 707.38 667.29"
       id="p9" />
    <path
       d="M745.61 661.61 C758.18 663.97 769.03 674.16 770.88 687.01 C762.03 685.91 754.47 680.37 745.56 679.41 C745.58 673.48 745.53 667.54 745.61 661.61"
       id="p10" />
    <path
       d="M935.80 686.86 C938.54 685.54 941.47 684.68 944.45 684.04 C944.82 688.21 945.08 692.44 944.44 696.60 C942.73 703.58 936.99 708.60 931.01 712.07 C922.72 716.92 913.66 720.23 904.65 723.45 C904.00 716.34 904.03 709.17 904.45 702.05 C914.91 697.02 925.27 691.75 935.80 686.86"
       id="p11" />
    <path
       d="M708.56 703.83 C712.19 698.63 718.99 697.70 724.47 695.36 C726.09 699.56 727.52 704.35 725.71 708.75 C724.98 711.13 721.94 710.83 720.06 710.22 C715.90 708.75 712.08 706.45 708.56 703.83"
       id="p12" />
    <path
       d="M373.57 698.83 C390.33 711.00 409.78 718.67 426.96 730.15 C442.00 739.94 454.09 755.66 456.32 773.82 C454.33 772.79 452.37 771.73 450.61 770.37 C427.65 752.29 401.86 738.24 375.79 725.22 C374.14 724.29 371.83 723.60 371.70 721.35 C370.34 713.85 371.19 706.04 373.57 698.83"
       id="p13" />
    <path
       d="M744.07 699.62 C747.19 699.38 750.33 699.40 753.47 699.53 C754.38 700.97 756.80 702.06 756.29 703.99 C754.47 706.50 751.58 707.83 748.75 708.85 C746.39 706.23 744.50 703.16 744.07 699.62"
       id="p14" />
    <path
       d="M357.14 707.85 C357.68 708.10 358.76 708.59 359.30 708.83 C360.92 711.79 359.98 714.80 357.88 717.22 C357.52 714.10 357.30 710.98 357.14 707.85"
       id="p15" />
    <path
       d="M317.23 722.40 C326.78 719.46 336.02 715.39 345.73 713.09 C347.00 718.96 347.40 725.03 347.48 731.04 C347.79 733.11 345.77 734.19 344.44 735.36 C337.45 740.61 328.81 744.23 319.96 743.86 C317.91 743.89 317.52 741.47 317.10 739.95 C316.12 734.15 316.64 728.22 317.23 722.40"
       id="p16" />
    <path
       d="M856.31 764.33 C861.96 754.94 870.11 747.46 876.71 738.79 C875.50 746.93 871.27 754.17 867.56 761.38 C862.79 769.95 857.78 778.43 851.80 786.22 C850.65 778.66 852.34 770.84 856.31 764.33"
       id="p17" />
    <path
       d="M193.49 739.07 C209.46 748.95 227.45 754.88 243.60 764.43 C250.38 768.42 257.08 772.95 261.99 779.18 C264.53 784.00 264.14 789.75 264.37 795.05 C264.75 796.89 262.60 797.46 261.36 798.23 C246.08 783.67 223.31 782.07 207.22 768.77 C198.49 761.49 194.18 750.21 193.49 739.07"
       id="p18" />
    <path
       d="M831.66 781.93 C831.56 776.11 832.90 770.33 835.25 765.02 C839.00 773.88 840.84 784.12 837.17 793.34 C834.24 790.22 831.79 786.33 831.66 781.93"
       id="p19" />
    <path
       d="M458.96 778.18 C466.77 783.11 474.28 788.55 481.11 794.78 C486.06 799.23 490.75 804.22 493.56 810.33 C495.84 815.45 497.19 820.94 497.93 826.49 C486.67 825.02 481.63 812.56 470.83 810.07 C468.11 805.10 466.38 799.69 464.40 794.41 C462.48 789.03 460.24 783.75 458.96 778.18"
       id="p20" />
    <path
       d="M786.23 815.09 C787.98 814.27 791.36 813.26 792.02 815.89 C792.49 820.14 793.70 825.08 790.92 828.82 C787.64 834.01 782.94 838.40 777.36 841.00 C777.17 835.63 777.28 830.26 777.30 824.90 C776.85 819.72 782.26 816.97 786.23 815.09"
       id="p21" />
    <path
       d="M497.95 826.62 C499.49 827.88 501.65 828.84 502.16 830.96 C502.33 832.65 502.02 834.34 501.86 836.03 C499.26 833.57 495.96 830.51 497.95 826.62"
       id="p22" />
    <path
       d="M759.40 852.42 C754.29 844.77 755.54 834.67 760.45 827.26 C762.83 835.52 761.82 844.29 759.40 852.42"
       id="p23" />
    <path
       d="M512.01 861.94 C507.71 854.50 504.28 846.38 503.08 837.83 C512.97 846.12 516.96 858.91 519.76 871.05 C516.68 868.47 513.97 865.45 512.01 861.94"
       id="p24" />
    <path
       d="M522.19 875.03 C529.97 885.32 536.96 896.84 548.05 903.97 C553.26 907.36 559.31 909.16 565.43 910.09 C565.65 919.15 565.44 928.21 565.38 937.26 C554.74 931.98 545.39 924.10 538.89 914.11 C530.98 902.25 526.05 888.67 522.19 875.03"
       id="p25" />
    <path
       d="M581.91 968.92 C579.48 961.16 578.17 952.90 579.43 944.80 C583.10 960.48 593.49 974.52 607.48 982.52 C619.22 989.28 632.68 992.33 646.02 993.94 C647.85 994.39 650.80 994.01 651.33 996.42 C652.39 1002.26 653.26 1008.63 651.14 1014.33 C649.11 1015.79 646.41 1015.57 644.04 1015.74 C629.84 1016.47 615.73 1011.14 604.77 1002.26 C593.94 993.85 586.01 981.95 581.91 968.92"
       id="p26" />
    <path
       d="M664.48 994.13 C669.89 998.81 675.82 1003.06 682.71 1005.26 C695.18 1009.93 708.80 1009.52 721.41 1013.58 C709.72 1018.76 696.82 1021.54 684.02 1020.60 C677.14 1020.36 670.77 1017.52 664.55 1014.86 C664.68 1007.94 664.29 1001.03 664.48 994.13"
       id="p27" />
  </defs>
  <g
     stroke-width="10pt"
     id="g4976">
    <use
       stroke="#fff"
       xlink:href="#p1"
       id="use4922" />
    <use
       stroke="#6725fb"
       xlink:href="#p2"
       id="use4924" />
    <use
       stroke="#c92339"
       xlink:href="#p3"
       id="use4926" />
    <use
       stroke="#cbcbcb"
       xlink:href="#p4"
       id="use4928" />
    <use
       stroke="#fff"
       xlink:href="#p5"
       id="use4930" />
    <use
       stroke="#fff"
       xlink:href="#p6"
       id="use4932" />
    <use
       stroke="#fff"
       xlink:href="#p7"
       id="use4934" />
    <use
       stroke="#fff"
       xlink:href="#p8"
       id="use4936" />
    <use
       stroke="#fff"
       xlink:href="#p9"
       id="use4938" />
    <use
       stroke="#fff"
       xlink:href="#p10"
       id="use4940" />
    <use
       stroke="#fff"
       xlink:href="#p11"
       id="use4942" />
    <use
       stroke="#fff"
       xlink:href="#p12"
       id="use4944" />
    <use
       stroke="#fff"
       xlink:href="#p13"
       id="use4946" />
    <use
       stroke="#fff"
       xlink:href="#p14"
       id="use4948" />
    <use
       stroke="#fff"
       xlink:href="#p15"
       id="use4950" />
    <use
       stroke="#fff"
       xlink:href="#p16"
       id="use4952" />
    <use
       stroke="#fff"
       xlink:href="#p17"
       id="use4954" />
    <use
       stroke="#fff"
       xlink:href="#p18"
       id="use4956" />
    <use
       stroke="#fff"
       xlink:href="#p19"
       id="use4958" />
    <use
       stroke="#fff"
       xlink:href="#p20"
       id="use4960" />
    <use
       stroke="#fff"
       xlink:href="#p21"
       id="use4962" />
    <use
       stroke="#fff"
       xlink:href="#p22"
       id="use4964" />
    <use
       stroke="#fff"
       xlink:href="#p23"
       id="use4966" />
    <use
       stroke="#fff"
       xlink:href="#p24"
       id="use4968" />
    <use
       stroke="#fff"
       xlink:href="#p25"
       id="use4970" />
    <use
       stroke="#fff"
       xlink:href="#p26"
       id="use4972" />
    <use
       stroke="#fff"
       xlink:href="#p27"
       id="use4974" />
  </g>
  <g
     id="g5032">
    <use
       xlink:href="#p1"
       fill="#fff"
       id="use4978" />
    <use
       xlink:href="#p2"
       fill="#6725fb"
       id="use4980" />
    <use
       xlink:href="#p3"
       fill="#c92339"
       id="use4982" />
    <use
       xlink:href="#p4"
       fill="#cbcbcb"
       id="use4984" />
    <use
       xlink:href="#p5"
       fill="#fff"
       id="use4986" />
    <use
       xlink:href="#p6"
       fill="#fff"
       id="use4988" />
    <use
       xlink:href="#p7"
       fill="#fff"
       id="use4990" />
    <use
       xlink:href="#p8"
       fill="#fff"
       id="use4992" />
    <use
       xlink:href="#p9"
       fill="#fff"
       id="use4994" />
    <use
       xlink:href="#p10"
       fill="#fff"
       id="use4996" />
    <use
       xlink:href="#p11"
       fill="#fff"
       id="use4998" />
    <use
       xlink:href="#p12"
       fill="#fff"
       id="use5000" />
    <use
       xlink:href="#p13"
       fill="#fff"
       id="use5002" />
    <use
       xlink:href="#p14"
       fill="#fff"
       id="use5004" />
    <use
       xlink:href="#p15"
       fill="#fff"
       id="use5006" />
    <use
       xlink:href="#p16"
       fill="#fff"
       id="use5008" />
    <use
       xlink:href="#p17"
       fill="#fff"
       id="use5010" />
    <use
       xlink:href="#p18"
       fill="#fff"
       id="use5012" />
    <use
       xlink:href="#p19"
       fill="#fff"
       id="use5014" />
    <use
       xlink:href="#p20"
       fill="#fff"
       id="use5016" />
    <use
       xlink:href="#p21"
       fill="#fff"
       id="use5018" />
    <use
       xlink:href="#p22"
       fill="#fff"
       id="use5020" />
    <use
       xlink:href="#p23"
       fill="#fff"
       id="use5022" />
    <use
       xlink:href="#p24"
       fill="#fff"
       id="use5024" />
    <use
       xlink:href="#p25"
       fill="#fff"
       id="use5026" />
    <use
       xlink:href="#p26"
       fill="#fff"
       id="use5028" />
    <use
       xlink:href="#p27"
       fill="#fff"
       id="use5030" />
  </g>
</svg>
